<svg width="44" height="44" viewBox="0 0 44 44" fill="none" xmlns="http://www.w3.org/2000/svg">
<g filter="url(#filter0_d_3_32)">
<path d="M40.1328 18.1328H25.8672V3.86719C25.8672 1.73138 24.1358 0 22 0C19.8642 0 18.1328 1.73138 18.1328 3.86719V18.1328H3.86719C1.73138 18.1328 0 19.8642 0 22C0 24.1358 1.73138 25.8672 3.86719 25.8672H18.1328V40.1328C18.1328 42.2686 19.8642 44 22 44C24.1358 44 25.8672 42.2686 25.8672 40.1328V25.8672H40.1328C42.2686 25.8672 44 24.1358 44 22C44 19.8642 42.2686 18.1328 40.1328 18.1328Z" fill="#5A5A5A"/>
</g>
<defs>
<filter id="filter0_d_3_32" x="-4" y="0" width="52" height="52" filterUnits="userSpaceOnUse" color-interpolation-filters="sRGB">
<feFlood flood-opacity="0" result="BackgroundImageFix"/>
<feColorMatrix in="SourceAlpha" type="matrix" values="0 0 0 0 0 0 0 0 0 0 0 0 0 0 0 0 0 0 127 0" result="hardAlpha"/>
<feOffset dy="4"/>
<feGaussianBlur stdDeviation="2"/>
<feComposite in2="hardAlpha" operator="out"/>
<feColorMatrix type="matrix" values="0 0 0 0 0 0 0 0 0 0 0 0 0 0 0 0 0 0 0.25 0"/>
<feBlend mode="normal" in2="BackgroundImageFix" result="effect1_dropShadow_3_32"/>
<feBlend mode="normal" in="SourceGraphic" in2="effect1_dropShadow_3_32" result="shape"/>
</filter>
</defs>
</svg>
